<mxfile host="65bd71144e">
    <diagram id="TGt-vNh0JYLEWDgygszy" name="Page-1">
        <mxGraphModel dx="1768" dy="1762" grid="1" gridSize="10" guides="1" tooltips="1" connect="1" arrows="1" fold="1" page="1" pageScale="1" pageWidth="850" pageHeight="1100" math="0" shadow="0">
            <root>
                <mxCell id="0"/>
                <mxCell id="1" parent="0"/>
                <mxCell id="7" value="User" style="swimlane;fontStyle=0;childLayout=stackLayout;horizontal=1;startSize=20;horizontalStack=0;resizeParent=1;resizeParentMax=0;resizeLast=0;collapsible=1;marginBottom=0;whiteSpace=wrap;html=1;" vertex="1" parent="1">
                    <mxGeometry x="230" y="-430" width="230" height="282" as="geometry"/>
                </mxCell>
                <mxCell id="8" value="- username: string" style="text;strokeColor=none;fillColor=none;align=left;verticalAlign=middle;spacingLeft=4;spacingRight=4;overflow=hidden;points=[[0,0.5],[1,0.5]];portConstraint=eastwest;rotatable=0;whiteSpace=wrap;html=1;" vertex="1" parent="7">
                    <mxGeometry y="20" width="230" height="30" as="geometry"/>
                </mxCell>
                <mxCell id="20" value="- password: string" style="text;strokeColor=none;fillColor=none;align=left;verticalAlign=middle;spacingLeft=4;spacingRight=4;overflow=hidden;points=[[0,0.5],[1,0.5]];portConstraint=eastwest;rotatable=0;whiteSpace=wrap;html=1;" vertex="1" parent="7">
                    <mxGeometry y="50" width="230" height="30" as="geometry"/>
                </mxCell>
                <mxCell id="9" value="- name: string" style="text;strokeColor=none;fillColor=none;align=left;verticalAlign=middle;spacingLeft=4;spacingRight=4;overflow=hidden;points=[[0,0.5],[1,0.5]];portConstraint=eastwest;rotatable=0;whiteSpace=wrap;html=1;" vertex="1" parent="7">
                    <mxGeometry y="80" width="230" height="30" as="geometry"/>
                </mxCell>
                <mxCell id="10" value="- email: string" style="text;strokeColor=none;fillColor=none;align=left;verticalAlign=middle;spacingLeft=4;spacingRight=4;overflow=hidden;points=[[0,0.5],[1,0.5]];portConstraint=eastwest;rotatable=0;whiteSpace=wrap;html=1;" vertex="1" parent="7">
                    <mxGeometry y="110" width="230" height="30" as="geometry"/>
                </mxCell>
                <mxCell id="19" value="- role: string" style="text;strokeColor=none;fillColor=none;align=left;verticalAlign=middle;spacingLeft=4;spacingRight=4;overflow=hidden;points=[[0,0.5],[1,0.5]];portConstraint=eastwest;rotatable=0;whiteSpace=wrap;html=1;" vertex="1" parent="7">
                    <mxGeometry y="140" width="230" height="30" as="geometry"/>
                </mxCell>
                <mxCell id="49" value="" style="line;strokeWidth=1;fillColor=none;align=left;verticalAlign=middle;spacingTop=-1;spacingLeft=3;spacingRight=3;rotatable=0;labelPosition=right;points=[];portConstraint=eastwest;strokeColor=inherit;fontColor=none;" vertex="1" parent="7">
                    <mxGeometry y="170" width="230" height="8" as="geometry"/>
                </mxCell>
                <mxCell id="42" value="+ register(username, password): boolean" style="text;align=left;verticalAlign=top;spacingLeft=4;spacingRight=4;overflow=hidden;rotatable=0;points=[[0,0.5],[1,0.5]];portConstraint=eastwest;fillColor=none;strokeColor=none;" vertex="1" parent="7">
                    <mxGeometry y="178" width="230" height="26" as="geometry"/>
                </mxCell>
                <mxCell id="44" value="+ login(username, password): boolean" style="text;align=left;verticalAlign=top;spacingLeft=4;spacingRight=4;overflow=hidden;rotatable=0;points=[[0,0.5],[1,0.5]];portConstraint=eastwest;fillColor=none;strokeColor=none;strokeWidth=0;" vertex="1" parent="7">
                    <mxGeometry y="204" width="230" height="26" as="geometry"/>
                </mxCell>
                <mxCell id="45" value="+ logout(): boolean" style="text;align=left;verticalAlign=top;spacingLeft=4;spacingRight=4;overflow=hidden;rotatable=0;points=[[0,0.5],[1,0.5]];portConstraint=eastwest;fillColor=none;strokeColor=none;" vertex="1" parent="7">
                    <mxGeometry y="230" width="230" height="26" as="geometry"/>
                </mxCell>
                <mxCell id="48" value="+ updateProfile(name: string, email): void" style="text;align=left;verticalAlign=top;spacingLeft=4;spacingRight=4;overflow=hidden;rotatable=0;points=[[0,0.5],[1,0.5]];portConstraint=eastwest;fillColor=none;strokeColor=none;" vertex="1" parent="7">
                    <mxGeometry y="256" width="230" height="26" as="geometry"/>
                </mxCell>
                <mxCell id="29" value="Paticipant" style="swimlane;fontStyle=0;childLayout=stackLayout;horizontal=1;startSize=30;horizontalStack=0;resizeParent=1;resizeParentMax=0;resizeLast=0;collapsible=1;marginBottom=0;whiteSpace=wrap;html=1;" vertex="1" parent="1">
                    <mxGeometry x="550" y="-200" width="290" height="138" as="geometry"/>
                </mxCell>
                <mxCell id="30" value="+ field: type" style="text;strokeColor=none;fillColor=none;align=left;verticalAlign=middle;spacingLeft=4;spacingRight=4;overflow=hidden;points=[[0,0.5],[1,0.5]];portConstraint=eastwest;rotatable=0;whiteSpace=wrap;html=1;" vertex="1" parent="29">
                    <mxGeometry y="30" width="290" height="30" as="geometry"/>
                </mxCell>
                <mxCell id="61" value="+ searchActivity(): Activity[]" style="text;align=left;verticalAlign=top;spacingLeft=4;spacingRight=4;overflow=hidden;rotatable=0;points=[[0,0.5],[1,0.5]];portConstraint=eastwest;strokeWidth=0;" vertex="1" parent="29">
                    <mxGeometry y="60" width="290" height="26" as="geometry"/>
                </mxCell>
                <mxCell id="60" value="+ registerForActivity(activity: Activity): boolean" style="text;align=left;verticalAlign=top;spacingLeft=4;spacingRight=4;overflow=hidden;rotatable=0;points=[[0,0.5],[1,0.5]];portConstraint=eastwest;strokeWidth=0;" vertex="1" parent="29">
                    <mxGeometry y="86" width="290" height="26" as="geometry"/>
                </mxCell>
                <mxCell id="62" value="+ downloadCertificate(activity: Activity): Certificate" style="text;align=left;verticalAlign=top;spacingLeft=4;spacingRight=4;overflow=hidden;rotatable=0;points=[[0,0.5],[1,0.5]];portConstraint=eastwest;strokeWidth=0;" vertex="1" parent="29">
                    <mxGeometry y="112" width="290" height="26" as="geometry"/>
                </mxCell>
                <mxCell id="33" value="Inspecter" style="swimlane;fontStyle=0;childLayout=stackLayout;horizontal=1;startSize=30;horizontalStack=0;resizeParent=1;resizeParentMax=0;resizeLast=0;collapsible=1;marginBottom=0;whiteSpace=wrap;html=1;" vertex="1" parent="1">
                    <mxGeometry x="-40" y="-120" width="270" height="172" as="geometry"/>
                </mxCell>
                <mxCell id="34" value="+ field: type" style="text;strokeColor=none;fillColor=none;align=left;verticalAlign=middle;spacingLeft=4;spacingRight=4;overflow=hidden;points=[[0,0.5],[1,0.5]];portConstraint=eastwest;rotatable=0;whiteSpace=wrap;html=1;" vertex="1" parent="33">
                    <mxGeometry y="30" width="270" height="30" as="geometry"/>
                </mxCell>
                <mxCell id="56" value="" style="line;strokeWidth=1;fillColor=none;align=left;verticalAlign=middle;spacingTop=-1;spacingLeft=3;spacingRight=3;rotatable=0;labelPosition=right;points=[];portConstraint=eastwest;strokeColor=inherit;fontColor=none;" vertex="1" parent="33">
                    <mxGeometry y="60" width="270" height="8" as="geometry"/>
                </mxCell>
                <mxCell id="54" value="+ createActivity(): void" style="text;align=left;verticalAlign=top;spacingLeft=4;spacingRight=4;overflow=hidden;rotatable=0;points=[[0,0.5],[1,0.5]];portConstraint=eastwest;strokeWidth=0;" vertex="1" parent="33">
                    <mxGeometry y="68" width="270" height="26" as="geometry"/>
                </mxCell>
                <mxCell id="59" value="+ approvePaticipant(paticipant: Paticipant): void" style="text;align=left;verticalAlign=top;spacingLeft=4;spacingRight=4;overflow=hidden;rotatable=0;points=[[0,0.5],[1,0.5]];portConstraint=eastwest;strokeWidth=0;" vertex="1" parent="33">
                    <mxGeometry y="94" width="270" height="26" as="geometry"/>
                </mxCell>
                <mxCell id="55" value="+ issueCertificate(): void" style="text;align=left;verticalAlign=top;spacingLeft=4;spacingRight=4;overflow=hidden;rotatable=0;points=[[0,0.5],[1,0.5]];portConstraint=eastwest;strokeWidth=0;" vertex="1" parent="33">
                    <mxGeometry y="120" width="270" height="26" as="geometry"/>
                </mxCell>
                <mxCell id="58" value="+ searchActivity(): Activity[]" style="text;align=left;verticalAlign=top;spacingLeft=4;spacingRight=4;overflow=hidden;rotatable=0;points=[[0,0.5],[1,0.5]];portConstraint=eastwest;strokeWidth=0;" vertex="1" parent="33">
                    <mxGeometry y="146" width="270" height="26" as="geometry"/>
                </mxCell>
                <mxCell id="38" value="" style="endArrow=block;html=1;fontColor=none;startArrow=none;startFill=0;endFill=0;exitX=0.5;exitY=0;exitDx=0;exitDy=0;endSize=13;entryX=0;entryY=0.5;entryDx=0;entryDy=0;" edge="1" parent="1" source="33" target="19">
                    <mxGeometry width="50" height="50" relative="1" as="geometry">
                        <mxPoint x="370" y="-80" as="sourcePoint"/>
                        <mxPoint x="250" y="-60" as="targetPoint"/>
                        <Array as="points"/>
                    </mxGeometry>
                </mxCell>
                <mxCell id="43" value="" style="endArrow=block;html=1;fontColor=none;startArrow=none;startFill=0;endFill=0;exitX=0.5;exitY=0;exitDx=0;exitDy=0;startSize=6;endSize=12;entryX=1;entryY=0.5;entryDx=0;entryDy=0;" edge="1" parent="1" source="29" target="42">
                    <mxGeometry width="50" height="50" relative="1" as="geometry">
                        <mxPoint x="160" as="sourcePoint"/>
                        <mxPoint x="440" y="-120" as="targetPoint"/>
                        <Array as="points"/>
                    </mxGeometry>
                </mxCell>
                <mxCell id="75" value="Activity" style="swimlane;fontStyle=0;childLayout=stackLayout;horizontal=1;startSize=30;horizontalStack=0;resizeParent=1;resizeParentMax=0;resizeLast=0;collapsible=1;marginBottom=0;whiteSpace=wrap;html=1;" vertex="1" parent="1">
                    <mxGeometry x="280" y="70" width="190" height="488" as="geometry"/>
                </mxCell>
                <mxCell id="76" value="+ a&lt;span style=&quot;text-align: center;&quot;&gt;ctivityId&lt;/span&gt;: number" style="text;strokeColor=none;fillColor=none;align=left;verticalAlign=middle;spacingLeft=4;spacingRight=4;overflow=hidden;points=[[0,0.5],[1,0.5]];portConstraint=eastwest;rotatable=0;whiteSpace=wrap;html=1;" vertex="1" parent="75">
                    <mxGeometry y="30" width="190" height="30" as="geometry"/>
                </mxCell>
                <mxCell id="80" value="+ name: string" style="text;strokeColor=none;fillColor=none;align=left;verticalAlign=middle;spacingLeft=4;spacingRight=4;overflow=hidden;points=[[0,0.5],[1,0.5]];portConstraint=eastwest;rotatable=0;whiteSpace=wrap;html=1;" vertex="1" parent="75">
                    <mxGeometry y="60" width="190" height="30" as="geometry"/>
                </mxCell>
                <mxCell id="77" value="+ organizer: string" style="text;align=left;verticalAlign=top;spacingLeft=4;spacingRight=4;overflow=hidden;rotatable=0;points=[[0,0.5],[1,0.5]];portConstraint=eastwest;strokeWidth=0;" vertex="1" parent="75">
                    <mxGeometry y="90" width="190" height="26" as="geometry"/>
                </mxCell>
                <mxCell id="78" value="+  maxPaticipant: number" style="text;align=left;verticalAlign=top;spacingLeft=4;spacingRight=4;overflow=hidden;rotatable=0;points=[[0,0.5],[1,0.5]];portConstraint=eastwest;strokeWidth=0;" vertex="1" parent="75">
                    <mxGeometry y="116" width="190" height="26" as="geometry"/>
                </mxCell>
                <mxCell id="79" value="+ activityPeriod: string" style="text;align=left;verticalAlign=top;spacingLeft=4;spacingRight=4;overflow=hidden;rotatable=0;points=[[0,0.5],[1,0.5]];portConstraint=eastwest;strokeWidth=0;" vertex="1" parent="75">
                    <mxGeometry y="142" width="190" height="26" as="geometry"/>
                </mxCell>
                <mxCell id="81" value="+ registrationPeriod: string" style="text;align=left;verticalAlign=top;spacingLeft=4;spacingRight=4;overflow=hidden;rotatable=0;points=[[0,0.5],[1,0.5]];portConstraint=eastwest;strokeWidth=0;" vertex="1" parent="75">
                    <mxGeometry y="168" width="190" height="26" as="geometry"/>
                </mxCell>
                <mxCell id="87" value="+ status: string" style="text;align=left;verticalAlign=top;spacingLeft=4;spacingRight=4;overflow=hidden;rotatable=0;points=[[0,0.5],[1,0.5]];portConstraint=eastwest;strokeWidth=0;" vertex="1" parent="75">
                    <mxGeometry y="194" width="190" height="26" as="geometry"/>
                </mxCell>
                <mxCell id="88" value="+ approveRequired: boolean" style="text;align=left;verticalAlign=top;spacingLeft=4;spacingRight=4;overflow=hidden;rotatable=0;points=[[0,0.5],[1,0.5]];portConstraint=eastwest;strokeWidth=0;" vertex="1" parent="75">
                    <mxGeometry y="220" width="190" height="26" as="geometry"/>
                </mxCell>
                <mxCell id="89" value="+ certificateIssued: boolean" style="text;align=left;verticalAlign=top;spacingLeft=4;spacingRight=4;overflow=hidden;rotatable=0;points=[[0,0.5],[1,0.5]];portConstraint=eastwest;strokeWidth=0;" vertex="1" parent="75">
                    <mxGeometry y="246" width="190" height="26" as="geometry"/>
                </mxCell>
                <mxCell id="100" value="+ Inspecter: Inspecter" style="text;align=left;verticalAlign=top;spacingLeft=4;spacingRight=4;overflow=hidden;rotatable=0;points=[[0,0.5],[1,0.5]];portConstraint=eastwest;strokeWidth=0;" vertex="1" parent="75">
                    <mxGeometry y="272" width="190" height="26" as="geometry"/>
                </mxCell>
                <mxCell id="90" value="+ schedule: File" style="text;align=left;verticalAlign=top;spacingLeft=4;spacingRight=4;overflow=hidden;rotatable=0;points=[[0,0.5],[1,0.5]];portConstraint=eastwest;strokeWidth=0;" vertex="1" parent="75">
                    <mxGeometry y="298" width="190" height="26" as="geometry"/>
                </mxCell>
                <mxCell id="86" value="" style="line;strokeWidth=1;fillColor=none;align=left;verticalAlign=middle;spacingTop=-1;spacingLeft=3;spacingRight=3;rotatable=0;labelPosition=right;points=[];portConstraint=eastwest;strokeColor=inherit;fontColor=none;" vertex="1" parent="75">
                    <mxGeometry y="324" width="190" height="8" as="geometry"/>
                </mxCell>
                <mxCell id="85" value="+ createActivity(): void" style="text;align=left;verticalAlign=top;spacingLeft=4;spacingRight=4;overflow=hidden;rotatable=0;points=[[0,0.5],[1,0.5]];portConstraint=eastwest;strokeWidth=0;strokeColor=none;" vertex="1" parent="75">
                    <mxGeometry y="332" width="190" height="26" as="geometry"/>
                </mxCell>
                <mxCell id="91" value="+ updateActivity(): void" style="text;align=left;verticalAlign=top;spacingLeft=4;spacingRight=4;overflow=hidden;rotatable=0;points=[[0,0.5],[1,0.5]];portConstraint=eastwest;strokeWidth=0;strokeColor=none;" vertex="1" parent="75">
                    <mxGeometry y="358" width="190" height="26" as="geometry"/>
                </mxCell>
                <mxCell id="92" value="+ deleteActivity(): void" style="text;align=left;verticalAlign=top;spacingLeft=4;spacingRight=4;overflow=hidden;rotatable=0;points=[[0,0.5],[1,0.5]];portConstraint=eastwest;strokeWidth=0;strokeColor=none;" vertex="1" parent="75">
                    <mxGeometry y="384" width="190" height="26" as="geometry"/>
                </mxCell>
                <mxCell id="93" value="+ publishActivity(): void" style="text;align=left;verticalAlign=top;spacingLeft=4;spacingRight=4;overflow=hidden;rotatable=0;points=[[0,0.5],[1,0.5]];portConstraint=eastwest;strokeWidth=0;strokeColor=none;" vertex="1" parent="75">
                    <mxGeometry y="410" width="190" height="26" as="geometry"/>
                </mxCell>
                <mxCell id="94" value="+ approvePaticipant(): void" style="text;align=left;verticalAlign=top;spacingLeft=4;spacingRight=4;overflow=hidden;rotatable=0;points=[[0,0.5],[1,0.5]];portConstraint=eastwest;strokeWidth=0;strokeColor=none;" vertex="1" parent="75">
                    <mxGeometry y="436" width="190" height="26" as="geometry"/>
                </mxCell>
                <mxCell id="95" value="+ generateCertificate(): Certificate" style="text;align=left;verticalAlign=top;spacingLeft=4;spacingRight=4;overflow=hidden;rotatable=0;points=[[0,0.5],[1,0.5]];portConstraint=eastwest;strokeWidth=0;strokeColor=none;" vertex="1" parent="75">
                    <mxGeometry y="462" width="190" height="26" as="geometry"/>
                </mxCell>
                <mxCell id="96" value="" style="endArrow=diamondThin;html=1;fontColor=none;startSize=16;endSize=13;exitX=0.821;exitY=1.015;exitDx=0;exitDy=0;exitPerimeter=0;endFill=1;startArrow=none;startFill=0;entryX=0;entryY=0.5;entryDx=0;entryDy=0;" edge="1" parent="1" source="58" target="78">
                    <mxGeometry width="50" height="50" relative="1" as="geometry">
                        <mxPoint x="310" y="200" as="sourcePoint"/>
                        <mxPoint x="360" y="150" as="targetPoint"/>
                    </mxGeometry>
                </mxCell>
                <mxCell id="97" value="&lt;font color=&quot;#ffffff&quot;&gt;create&lt;/font&gt;" style="edgeLabel;html=1;align=center;verticalAlign=middle;resizable=0;points=[];fontColor=none;" vertex="1" connectable="0" parent="96">
                    <mxGeometry x="0.1008" relative="1" as="geometry">
                        <mxPoint as="offset"/>
                    </mxGeometry>
                </mxCell>
                <mxCell id="98" value="1.. *" style="text;html=1;strokeColor=none;fillColor=none;align=center;verticalAlign=middle;whiteSpace=wrap;rounded=0;strokeWidth=0;fontColor=#FFFFFF;" vertex="1" parent="1">
                    <mxGeometry x="230" y="190" width="60" height="30" as="geometry"/>
                </mxCell>
                <mxCell id="99" value="1.. 1" style="text;html=1;strokeColor=none;fillColor=none;align=center;verticalAlign=middle;whiteSpace=wrap;rounded=0;strokeWidth=0;fontColor=#FFFFFF;" vertex="1" parent="1">
                    <mxGeometry x="130" y="52" width="60" height="30" as="geometry"/>
                </mxCell>
                <mxCell id="102" value="" style="endArrow=none;html=1;fontColor=#FFFFFF;startSize=16;endSize=13;exitX=0.5;exitY=0;exitDx=0;exitDy=0;entryX=0.95;entryY=0.99;entryDx=0;entryDy=0;entryPerimeter=0;" edge="1" parent="1" source="115" target="62">
                    <mxGeometry width="50" height="50" relative="1" as="geometry">
                        <mxPoint x="690" y="120" as="sourcePoint"/>
                        <mxPoint x="600" y="150" as="targetPoint"/>
                        <Array as="points"/>
                    </mxGeometry>
                </mxCell>
                <mxCell id="123" value="submait" style="edgeLabel;html=1;align=center;verticalAlign=middle;resizable=0;points=[];fontColor=#FFFFFF;" vertex="1" connectable="0" parent="102">
                    <mxGeometry x="0.1678" y="-1" relative="1" as="geometry">
                        <mxPoint as="offset"/>
                    </mxGeometry>
                </mxCell>
                <mxCell id="104" value="1.. *" style="text;html=1;strokeColor=none;fillColor=none;align=center;verticalAlign=middle;whiteSpace=wrap;rounded=0;strokeWidth=0;fontColor=#FFFFFF;" vertex="1" parent="1">
                    <mxGeometry x="760" y="100" width="60" height="30" as="geometry"/>
                </mxCell>
                <mxCell id="105" value="1.. 1" style="text;html=1;strokeColor=none;fillColor=none;align=center;verticalAlign=middle;whiteSpace=wrap;rounded=0;strokeWidth=0;fontColor=#FFFFFF;" vertex="1" parent="1">
                    <mxGeometry x="760" y="-49" width="60" height="30" as="geometry"/>
                </mxCell>
                <mxCell id="115" value="&lt;span style=&quot;color: rgb(255, 255, 255); font-weight: 700;&quot;&gt;Registration&lt;/span&gt;" style="swimlane;fontStyle=0;childLayout=stackLayout;horizontal=1;startSize=30;horizontalStack=0;resizeParent=1;resizeParentMax=0;resizeLast=0;collapsible=1;marginBottom=0;whiteSpace=wrap;html=1;" vertex="1" parent="1">
                    <mxGeometry x="690" y="130" width="270" height="202" as="geometry"/>
                </mxCell>
                <mxCell id="116" value="+ r&lt;span style=&quot;color: rgb(255, 255, 255); text-align: center;&quot;&gt;egistrationId&lt;/span&gt;: number" style="text;strokeColor=none;fillColor=none;align=left;verticalAlign=middle;spacingLeft=4;spacingRight=4;overflow=hidden;points=[[0,0.5],[1,0.5]];portConstraint=eastwest;rotatable=0;whiteSpace=wrap;html=1;" vertex="1" parent="115">
                    <mxGeometry y="30" width="270" height="30" as="geometry"/>
                </mxCell>
                <mxCell id="135" value="+ paticipant: Paticipant" style="text;align=left;verticalAlign=top;spacingLeft=4;spacingRight=4;overflow=hidden;rotatable=0;points=[[0,0.5],[1,0.5]];portConstraint=eastwest;strokeWidth=0;" vertex="1" parent="115">
                    <mxGeometry y="60" width="270" height="26" as="geometry"/>
                </mxCell>
                <mxCell id="136" value="+ a&lt;span style=&quot;text-align: center;&quot;&gt;ctivity&lt;/span&gt;: A&lt;span style=&quot;text-align: center;&quot;&gt;ctivity&lt;/span&gt;" style="text;strokeColor=none;fillColor=none;align=left;verticalAlign=middle;spacingLeft=4;spacingRight=4;overflow=hidden;points=[[0,0.5],[1,0.5]];portConstraint=eastwest;rotatable=0;whiteSpace=wrap;html=1;" vertex="1" parent="115">
                    <mxGeometry y="86" width="270" height="30" as="geometry"/>
                </mxCell>
                <mxCell id="137" value="+ status: string" style="text;align=left;verticalAlign=top;spacingLeft=4;spacingRight=4;overflow=hidden;rotatable=0;points=[[0,0.5],[1,0.5]];portConstraint=eastwest;strokeWidth=0;" vertex="1" parent="115">
                    <mxGeometry y="116" width="270" height="26" as="geometry"/>
                </mxCell>
                <mxCell id="117" value="" style="line;strokeWidth=1;fillColor=none;align=left;verticalAlign=middle;spacingTop=-1;spacingLeft=3;spacingRight=3;rotatable=0;labelPosition=right;points=[];portConstraint=eastwest;strokeColor=inherit;fontColor=none;" vertex="1" parent="115">
                    <mxGeometry y="142" width="270" height="8" as="geometry"/>
                </mxCell>
                <mxCell id="127" value="+ submaitRegistration(): void" style="text;strokeColor=none;fillColor=none;align=left;verticalAlign=top;spacingLeft=4;spacingRight=4;overflow=hidden;rotatable=0;points=[[0,0.5],[1,0.5]];portConstraint=eastwest;strokeWidth=0;fontColor=#FFFFFF;" vertex="1" parent="115">
                    <mxGeometry y="150" width="270" height="26" as="geometry"/>
                </mxCell>
                <mxCell id="139" value="+ updateStatus(): void" style="text;align=left;verticalAlign=top;spacingLeft=4;spacingRight=4;overflow=hidden;rotatable=0;points=[[0,0.5],[1,0.5]];portConstraint=eastwest;strokeWidth=0;strokeColor=none;" vertex="1" parent="115">
                    <mxGeometry y="176" width="270" height="26" as="geometry"/>
                </mxCell>
                <mxCell id="130" value="1.. *" style="text;html=1;strokeColor=none;fillColor=none;align=center;verticalAlign=middle;whiteSpace=wrap;rounded=0;strokeWidth=0;fontColor=#FFFFFF;" vertex="1" parent="1">
                    <mxGeometry x="630" y="182" width="60" height="30" as="geometry"/>
                </mxCell>
                <mxCell id="131" value="1.. 1" style="text;html=1;strokeColor=none;fillColor=none;align=center;verticalAlign=middle;whiteSpace=wrap;rounded=0;strokeWidth=0;fontColor=#FFFFFF;" vertex="1" parent="1">
                    <mxGeometry x="470" y="182" width="60" height="30" as="geometry"/>
                </mxCell>
                <mxCell id="133" style="edgeStyle=none;html=1;exitX=1;exitY=0.5;exitDx=0;exitDy=0;entryX=0;entryY=0.25;entryDx=0;entryDy=0;fontColor=#FFFFFF;startArrow=none;startFill=0;endArrow=none;endFill=0;startSize=16;endSize=13;" edge="1" parent="1" source="77" target="115">
                    <mxGeometry relative="1" as="geometry"/>
                </mxCell>
                <mxCell id="134" value="has" style="edgeLabel;html=1;align=center;verticalAlign=middle;resizable=0;points=[];fontColor=#FFFFFF;" vertex="1" connectable="0" parent="133">
                    <mxGeometry x="0.1159" relative="1" as="geometry">
                        <mxPoint as="offset"/>
                    </mxGeometry>
                </mxCell>
                <mxCell id="140" value="&lt;span style=&quot;text-align: left;&quot;&gt;Certificate&lt;/span&gt;" style="swimlane;fontStyle=0;childLayout=stackLayout;horizontal=1;startSize=30;horizontalStack=0;resizeParent=1;resizeParentMax=0;resizeLast=0;collapsible=1;marginBottom=0;whiteSpace=wrap;html=1;fillColor=default;" vertex="1" parent="1">
                    <mxGeometry x="-230" y="260" width="270" height="228" as="geometry"/>
                </mxCell>
                <mxCell id="141" value="+ c&lt;span style=&quot;&quot;&gt;ertificateId&lt;/span&gt;: number" style="text;strokeColor=none;fillColor=none;align=left;verticalAlign=middle;spacingLeft=4;spacingRight=4;overflow=hidden;points=[[0,0.5],[1,0.5]];portConstraint=eastwest;rotatable=0;whiteSpace=wrap;html=1;" vertex="1" parent="140">
                    <mxGeometry y="30" width="270" height="30" as="geometry"/>
                </mxCell>
                <mxCell id="152" value="+ content:&amp;nbsp;&lt;span style=&quot;&quot;&gt;string&lt;/span&gt;" style="text;strokeColor=none;fillColor=none;align=left;verticalAlign=middle;spacingLeft=4;spacingRight=4;overflow=hidden;points=[[0,0.5],[1,0.5]];portConstraint=eastwest;rotatable=0;whiteSpace=wrap;html=1;" vertex="1" parent="140">
                    <mxGeometry y="60" width="270" height="30" as="geometry"/>
                </mxCell>
                <mxCell id="155" value="+ issuer: Inspecter" style="text;align=left;verticalAlign=top;spacingLeft=4;spacingRight=4;overflow=hidden;rotatable=0;points=[[0,0.5],[1,0.5]];portConstraint=eastwest;strokeWidth=0;" vertex="1" parent="140">
                    <mxGeometry y="90" width="270" height="26" as="geometry"/>
                </mxCell>
                <mxCell id="153" value="+ signature: File" style="text;align=left;verticalAlign=top;spacingLeft=4;spacingRight=4;overflow=hidden;rotatable=0;points=[[0,0.5],[1,0.5]];portConstraint=eastwest;strokeWidth=0;" vertex="1" parent="140">
                    <mxGeometry y="116" width="270" height="26" as="geometry"/>
                </mxCell>
                <mxCell id="154" value="+ template: File" style="text;align=left;verticalAlign=top;spacingLeft=4;spacingRight=4;overflow=hidden;rotatable=0;points=[[0,0.5],[1,0.5]];portConstraint=eastwest;strokeWidth=0;" vertex="1" parent="140">
                    <mxGeometry y="142" width="270" height="26" as="geometry"/>
                </mxCell>
                <mxCell id="142" value="" style="line;strokeWidth=1;fillColor=none;align=left;verticalAlign=middle;spacingTop=-1;spacingLeft=3;spacingRight=3;rotatable=0;labelPosition=right;points=[];portConstraint=eastwest;strokeColor=inherit;fontColor=none;" vertex="1" parent="140">
                    <mxGeometry y="168" width="270" height="8" as="geometry"/>
                </mxCell>
                <mxCell id="143" value="+ generateCertificate(): Certificate" style="text;align=left;verticalAlign=top;spacingLeft=4;spacingRight=4;overflow=hidden;rotatable=0;points=[[0,0.5],[1,0.5]];portConstraint=eastwest;strokeWidth=0;" vertex="1" parent="140">
                    <mxGeometry y="176" width="270" height="26" as="geometry"/>
                </mxCell>
                <mxCell id="156" value="+ sendCertificateNotification(): void" style="text;align=left;verticalAlign=top;spacingLeft=4;spacingRight=4;overflow=hidden;rotatable=0;points=[[0,0.5],[1,0.5]];portConstraint=eastwest;strokeWidth=0;" vertex="1" parent="140">
                    <mxGeometry y="202" width="270" height="26" as="geometry"/>
                </mxCell>
                <mxCell id="147" value="1.. 1" style="text;html=1;strokeColor=none;fillColor=none;align=center;verticalAlign=middle;whiteSpace=wrap;rounded=0;strokeWidth=0;fontColor=#FFFFFF;" vertex="1" parent="1">
                    <mxGeometry x="220" y="292" width="60" height="30" as="geometry"/>
                </mxCell>
                <mxCell id="149" value="1.. *" style="text;html=1;strokeColor=none;fillColor=none;align=center;verticalAlign=middle;whiteSpace=wrap;rounded=0;strokeWidth=0;fontColor=#FFFFFF;" vertex="1" parent="1">
                    <mxGeometry x="40" y="292" width="60" height="30" as="geometry"/>
                </mxCell>
                <mxCell id="150" style="edgeStyle=none;html=1;exitX=1;exitY=0.5;exitDx=0;exitDy=0;entryX=-0.018;entryY=-0.033;entryDx=0;entryDy=0;entryPerimeter=0;fontColor=#FFFFFF;startArrow=diamondThin;startFill=1;endArrow=none;endFill=0;startSize=16;endSize=13;" edge="1" parent="1" source="152" target="100">
                    <mxGeometry relative="1" as="geometry"/>
                </mxCell>
                <mxCell id="151" value="issue" style="edgeLabel;html=1;align=center;verticalAlign=middle;resizable=0;points=[];fontColor=#FFFFFF;" vertex="1" connectable="0" parent="150">
                    <mxGeometry x="-0.1377" y="-2" relative="1" as="geometry">
                        <mxPoint x="1" as="offset"/>
                    </mxGeometry>
                </mxCell>
                <mxCell id="167" style="edgeStyle=none;html=1;exitX=0.5;exitY=0;exitDx=0;exitDy=0;entryX=0.552;entryY=1.172;entryDx=0;entryDy=0;entryPerimeter=0;fontColor=#FFFFFF;startArrow=diamondThin;startFill=1;endArrow=none;endFill=0;startSize=16;endSize=13;" edge="1" parent="1" source="157" target="95">
                    <mxGeometry relative="1" as="geometry"/>
                </mxCell>
                <mxCell id="168" value="send" style="edgeLabel;html=1;align=center;verticalAlign=middle;resizable=0;points=[];fontColor=#FFFFFF;" vertex="1" connectable="0" parent="167">
                    <mxGeometry x="-0.2079" y="-3" relative="1" as="geometry">
                        <mxPoint x="-3" y="-11" as="offset"/>
                    </mxGeometry>
                </mxCell>
                <mxCell id="157" value="&lt;span style=&quot;text-align: left;&quot;&gt;Notification&lt;/span&gt;" style="swimlane;fontStyle=0;childLayout=stackLayout;horizontal=1;startSize=30;horizontalStack=0;resizeParent=1;resizeParentMax=0;resizeLast=0;collapsible=1;marginBottom=0;whiteSpace=wrap;html=1;fillColor=default;" vertex="1" parent="1">
                    <mxGeometry x="250" y="710" width="270" height="202" as="geometry"/>
                </mxCell>
                <mxCell id="165" value="+ sendCertificateNotification(): void" style="text;align=left;verticalAlign=top;spacingLeft=4;spacingRight=4;overflow=hidden;rotatable=0;points=[[0,0.5],[1,0.5]];portConstraint=eastwest;strokeWidth=0;" vertex="1" parent="157">
                    <mxGeometry y="30" width="270" height="26" as="geometry"/>
                </mxCell>
                <mxCell id="158" value="+&amp;nbsp;&lt;span style=&quot;&quot;&gt;Notification&lt;/span&gt;&lt;span style=&quot;&quot;&gt;Id&lt;/span&gt;: number" style="text;strokeColor=none;fillColor=none;align=left;verticalAlign=middle;spacingLeft=4;spacingRight=4;overflow=hidden;points=[[0,0.5],[1,0.5]];portConstraint=eastwest;rotatable=0;whiteSpace=wrap;html=1;" vertex="1" parent="157">
                    <mxGeometry y="56" width="270" height="30" as="geometry"/>
                </mxCell>
                <mxCell id="161" value="+ message: string" style="text;align=left;verticalAlign=top;spacingLeft=4;spacingRight=4;overflow=hidden;rotatable=0;points=[[0,0.5],[1,0.5]];portConstraint=eastwest;strokeWidth=0;" vertex="1" parent="157">
                    <mxGeometry y="86" width="270" height="26" as="geometry"/>
                </mxCell>
                <mxCell id="160" value="+ recipient: Paticipant" style="text;align=left;verticalAlign=top;spacingLeft=4;spacingRight=4;overflow=hidden;rotatable=0;points=[[0,0.5],[1,0.5]];portConstraint=eastwest;strokeWidth=0;" vertex="1" parent="157">
                    <mxGeometry y="112" width="270" height="26" as="geometry"/>
                </mxCell>
                <mxCell id="159" value="+ status:&amp;nbsp;&lt;span style=&quot;&quot;&gt;string&lt;/span&gt;" style="text;strokeColor=none;fillColor=none;align=left;verticalAlign=middle;spacingLeft=4;spacingRight=4;overflow=hidden;points=[[0,0.5],[1,0.5]];portConstraint=eastwest;rotatable=0;whiteSpace=wrap;html=1;" vertex="1" parent="157">
                    <mxGeometry y="138" width="270" height="30" as="geometry"/>
                </mxCell>
                <mxCell id="163" value="" style="line;strokeWidth=1;fillColor=none;align=left;verticalAlign=middle;spacingTop=-1;spacingLeft=3;spacingRight=3;rotatable=0;labelPosition=right;points=[];portConstraint=eastwest;strokeColor=inherit;fontColor=none;" vertex="1" parent="157">
                    <mxGeometry y="168" width="270" height="8" as="geometry"/>
                </mxCell>
                <mxCell id="164" value="+ generateCertificate(): Certificate" style="text;align=left;verticalAlign=top;spacingLeft=4;spacingRight=4;overflow=hidden;rotatable=0;points=[[0,0.5],[1,0.5]];portConstraint=eastwest;strokeWidth=0;" vertex="1" parent="157">
                    <mxGeometry y="176" width="270" height="26" as="geometry"/>
                </mxCell>
                <mxCell id="169" value="1.. 1" style="text;html=1;strokeColor=none;fillColor=none;align=center;verticalAlign=middle;whiteSpace=wrap;rounded=0;strokeWidth=0;fontColor=#FFFFFF;" vertex="1" parent="1">
                    <mxGeometry x="330" y="558" width="60" height="30" as="geometry"/>
                </mxCell>
                <mxCell id="171" value="1.. *" style="text;html=1;strokeColor=none;fillColor=none;align=center;verticalAlign=middle;whiteSpace=wrap;rounded=0;strokeWidth=0;fontColor=#FFFFFF;" vertex="1" parent="1">
                    <mxGeometry x="380" y="680" width="60" height="30" as="geometry"/>
                </mxCell>
            </root>
        </mxGraphModel>
    </diagram>
</mxfile>